<svg xmlns="http://www.w3.org/2000/svg" fill="none" viewBox="0 0 24 24" id="Pandas--Streamline-Svg-Logos" height="24" width="24">
  <desc>
    Pandas Streamline Icon: https://streamlinehq.com
  </desc>
  <path fill="#130754" d="M8.2697 13.05825c-0.3234 0 -0.652825 -0.13385 -0.8591 -0.396175v1.41715h-0.647775V10.580775h0.58575l0.02235 0.384825c0.200925 -0.2957 0.557725 -0.4519 0.89815 -0.4519 0.652825 0 1.133725 0.547 1.133725 1.272275 0 0.72525 -0.48025 1.2726 -1.1331 1.272275Zm-0.2006 -2.0643c-0.379475 0 -0.6862 0.2957 -0.6862 0.792325 0 0.49665 0.306725 0.792975 0.6862 0.792975s0.686225 -0.2957 0.686225 -0.792325c0 -0.491675 -0.300625 -0.787025 -0.67485 -0.7929l-0.011375 -0.000075Zm3.775275 1.99785 -0.02235 -0.384825c-0.200925 0.2957 -0.55805 0.4519 -0.898475 0.4516 -0.652825 0 -1.133725 -0.546725 -1.133725 -1.271975 0 -0.72525 0.47995 -1.272275 1.133725 -1.271975 0.340425 0 0.69755 0.157475 0.898475 0.451925l0.02235 -0.384825h0.587v2.410075h-0.587Zm-0.7196 -1.99755c-0.379475 0 -0.6862 0.295725 -0.686525 0.79235 -0.0003 0.496625 0.306725 0.79265 0.686225 0.79265 0.379475 0 0.686525 -0.2957 0.686525 -0.792325 0 -0.49665 -0.30675 -0.792675 -0.686225 -0.792675Zm3.56995 1.997875V11.65875c0 -0.4686 -0.16155 -0.6248 -0.457275 -0.6248 -0.30705 0 -0.6418 0.2787 -0.6418 0.61345v1.344725h-0.647475v-2.4104h0.591725l0.028025 0.44655c0.161875 -0.30705 0.52435 -0.513325 0.8928 -0.513325 0.6415 0 0.881775 0.44655 0.881775 1.043325v1.43415l-0.647775 -0.0003Zm3.020075 0.000625 -0.02235 -0.38515c-0.200925 0.2957 -0.55805 0.4519 -0.89815 0.4519 -0.652825 0 -1.133725 -0.547 -1.133725 -1.272275 0 -0.72525 0.47995 -1.27195 1.133725 -1.27195 0.323425 0 0.6525 0.13415 0.8591 0.39615v-1.266275h0.647475V12.99275h-0.586075Zm-0.7196 -1.99755c-0.3779 0 -0.6862 0.295725 -0.6862 0.792025 0 0.496325 0.306725 0.792025 0.6862 0.792025 0.3795 0 0.686225 -0.2954 0.686225 -0.792025s-0.3058 -0.792025 -0.686225 -0.792025Zm3.7375 1.99785 -0.022375 -0.384825c-0.200925 0.295725 -0.558025 0.4516 -0.898475 0.4516 -0.652825 0 -1.1337 -0.5467 -1.1337 -1.272275 0 -0.725575 0.479925 -1.271975 1.1337 -1.271975 0.34045 0 0.69755 0.157475 0.898475 0.452225l0.022375 -0.38515h0.58575v2.4101l-0.58575 0.0003Zm-0.7196 -1.997525c-0.3779 0 -0.686225 0.2957 -0.686525 0.792325 -0.000325 0.49665 0.30705 0.7914 0.6862 0.7914 0.379175 0 0.686525 -0.2957 0.686525 -0.792325 0 -0.491675 -0.300625 -0.7855 -0.67485 -0.791325l-0.01135 -0.000075Zm2.739175 2.07595c-0.3405 -0.002825 -0.673925 -0.09735 -0.965225 -0.273675l0.106125 -0.446225 0.032825 0.019425c0.194875 0.113725 0.4776 0.248575 0.81525 0.248575 0.25665 0 0.435225 -0.0781 0.435225 -0.279025 0 -0.1729 -0.184225 -0.2343 -0.513325 -0.3124 -0.591425 -0.1285 -0.80335 -0.4409 -0.80335 -0.781325 0 -0.379475 0.2957 -0.736275 0.948525 -0.736275 0.396175 0 0.742275 0.172875 0.8188 0.2176l-0.106125 0.4242c-0.2108 -0.1269 -0.45125 -0.196175 -0.69725 -0.200925 -0.262 0 -0.3905 0.089125 -0.3905 0.2343 0 0.16155 0.16755 0.2343 0.4239 0.295725 0.636125 0.133825 0.8928 0.42955 0.8928 0.753275 0.00125 0.518675 -0.378225 0.83675 -0.997675 0.83675Z" stroke-width="0.25"></path>
  <path fill="#130754" d="M1.4684275 8.9394h0.7586425v1.575225H1.4684275v-1.575225Zm0 3.2358h0.7586425v1.575225H1.4684275v-1.575225ZM0.25 10.23465h0.7586425v5.2362H0.25V10.23465Zm2.411975 3.240225h0.75865v1.575225h-0.75865v-1.575225Zm0 -3.238325h0.75865v1.575225h-0.75865v-1.575225Zm1.193225 -1.7075h0.75865v5.236175h-0.75865V8.52905Z" stroke-width="0.25"></path>
  <path fill="#ffca00" d="M2.22715 10.974375H1.468505v0.7432H2.22715v-0.7432Z" stroke-width="0.25"></path>
  <path fill="#e70488" d="M3.420625 12.2716h-0.75865v0.743225h0.75865v-0.743225Z" stroke-width="0.25"></path>
</svg>